STARTFONT 2.1
FONT -FontForge-Peking Assignment-Book-R-Normal--34-330-75-75-P-100-ISO10646-1
SIZE 33 75 75
FONTBOUNDINGBOX 19 21 -4 -4
COMMENT "Generated by fontforge, http://fontforge.sourceforge.net"
COMMENT "Copyright NAL 2014"
STARTPROPERTIES 39
FOUNDRY "FontForge"
FAMILY_NAME "Peking Assignment"
WEIGHT_NAME "Book"
SLANT "R"
SETWIDTH_NAME "Normal"
ADD_STYLE_NAME ""
PIXEL_SIZE 34
POINT_SIZE 330
RESOLUTION_X 75
RESOLUTION_Y 75
SPACING "P"
AVERAGE_WIDTH 100
CHARSET_REGISTRY "ISO10646"
CHARSET_ENCODING "1"
FONTNAME_REGISTRY ""
CHARSET_COLLECTIONS "ISO10646-1"
FONT_NAME "Peking-Assignment"
FACE_NAME "Peking Assignment Regular"
COPYRIGHT "Copyright NAL 2014"
FONT_VERSION "1.0"
FONT_ASCENT 27
FONT_DESCENT 7
UNDERLINE_POSITION 3
UNDERLINE_THICKNESS 2
X_HEIGHT 10
CAP_HEIGHT 14
RAW_ASCENT 799
RAW_DESCENT 200
NORM_SPACE 4
RELATIVE_WEIGHT 40
RELATIVE_SETWIDTH 50
SUPERSCRIPT_X 0
SUPERSCRIPT_Y 17
SUPERSCRIPT_SIZE 17
SUBSCRIPT_X 0
SUBSCRIPT_Y -2
SUBSCRIPT_SIZE 17
AVG_LOWERCASE_WIDTH 104
AVG_UPPERCASE_WIDTH 129
ENDPROPERTIES
CHARS 102
STARTCHAR space
ENCODING 32
SWIDTH 125 0
DWIDTH 4 0
BBX 1 1 0 0
BITMAP
00
ENDCHAR
STARTCHAR exclam
ENCODING 33
SWIDTH 125 0
DWIDTH 4 0
BBX 2 15 0 0
BITMAP
C0
C0
C0
C0
C0
C0
C0
C0
C0
C0
C0
00
00
C0
C0
ENDCHAR
STARTCHAR quotedbl
ENCODING 34
SWIDTH 187 0
DWIDTH 6 0
BBX 4 4 0 11
BITMAP
F0
F0
F0
A0
ENDCHAR
STARTCHAR numbersign
ENCODING 35
SWIDTH 375 0
DWIDTH 13 0
BBX 11 15 0 0
BITMAP
3380
3380
3380
3380
FFE0
FFE0
F380
3380
3380
FFE0
FFE0
3380
3380
3380
3380
ENDCHAR
STARTCHAR dollar
ENCODING 36
SWIDTH 375 0
DWIDTH 13 0
BBX 11 19 0 -2
BITMAP
0C00
0C00
3FE0
7FE0
CCE0
CCE0
CC00
CC00
CFE0
FFE0
FFE0
0CE0
0CE0
CCE0
CCE0
FFC0
FF80
0C00
0C00
ENDCHAR
STARTCHAR percent
ENCODING 37
SWIDTH 375 0
DWIDTH 13 0
BBX 11 15 0 0
BITMAP
F0E0
F0E0
F0E0
F0E0
00E0
00E0
00E0
7FC0
FF80
C000
C000
C3E0
C3E0
C3E0
C3E0
ENDCHAR
STARTCHAR ampersand
ENCODING 38
SWIDTH 375 0
DWIDTH 13 0
BBX 11 15 0 0
BITMAP
CC00
DC00
C000
C000
C380
C380
C3E0
7FE0
3FE0
C380
C380
C380
C380
FFE0
FFE0
ENDCHAR
STARTCHAR quotesingle
ENCODING 39
SWIDTH 125 0
DWIDTH 4 0
BBX 2 4 0 11
BITMAP
C0
C0
C0
80
ENDCHAR
STARTCHAR parenleft
ENCODING 40
SWIDTH 187 0
DWIDTH 6 0
BBX 4 15 0 0
BITMAP
F0
F0
C0
C0
C0
C0
C0
C0
C0
C0
C0
C0
C0
F0
F0
ENDCHAR
STARTCHAR parenright
ENCODING 41
SWIDTH 187 0
DWIDTH 6 0
BBX 4 15 0 0
BITMAP
F0
F0
30
30
30
30
30
30
30
30
30
30
30
F0
F0
ENDCHAR
STARTCHAR asterisk
ENCODING 42
SWIDTH 250 0
DWIDTH 9 0
BBX 6 6 0 9
BITMAP
30
B4
30
30
FC
B4
ENDCHAR
STARTCHAR plus
ENCODING 43
SWIDTH 250 0
DWIDTH 9 0
BBX 6 7 0 4
BITMAP
30
30
3C
FC
FC
30
30
ENDCHAR
STARTCHAR comma
ENCODING 44
SWIDTH 125 0
DWIDTH 4 0
BBX 2 4 0 -2
BITMAP
C0
C0
C0
80
ENDCHAR
STARTCHAR hyphen
ENCODING 45
SWIDTH 250 0
DWIDTH 9 0
BBX 6 3 0 6
BITMAP
FC
FC
FC
ENDCHAR
STARTCHAR period
ENCODING 46
SWIDTH 125 0
DWIDTH 4 0
BBX 2 2 0 0
BITMAP
C0
C0
ENDCHAR
STARTCHAR slash
ENCODING 47
SWIDTH 375 0
DWIDTH 13 0
BBX 11 15 0 0
BITMAP
00E0
00E0
00E0
00E0
00E0
00E0
00E0
7FC0
FF80
C000
C000
C000
C000
C000
C000
ENDCHAR
STARTCHAR zero
ENCODING 48
SWIDTH 375 0
DWIDTH 13 0
BBX 11 15 0 0
BITMAP
FFE0
FFE0
C0E0
C0E0
C0E0
C0E0
C0E0
C0E0
C0E0
C0E0
C0E0
C0E0
C0E0
FFE0
FFE0
ENDCHAR
STARTCHAR one
ENCODING 49
SWIDTH 187 0
DWIDTH 6 0
BBX 4 15 0 0
BITMAP
F0
F0
00
10
30
30
30
30
30
30
30
30
30
30
30
ENDCHAR
STARTCHAR two
ENCODING 50
SWIDTH 375 0
DWIDTH 13 0
BBX 11 15 0 0
BITMAP
CF80
DFC0
C0E0
C0E0
00E0
00E0
00E0
FFE0
FFE0
C000
C000
C0E0
C0E0
FFE0
FEE0
ENDCHAR
STARTCHAR three
ENCODING 51
SWIDTH 375 0
DWIDTH 13 0
BBX 11 15 0 0
BITMAP
FEE0
FFE0
C0E0
C0E0
00E0
00E0
00E0
3FC0
3F80
00E0
00E0
C0E0
C0E0
FFE0
FFE0
ENDCHAR
STARTCHAR four
ENCODING 52
SWIDTH 375 0
DWIDTH 13 0
BBX 11 15 0 0
BITMAP
C380
C380
C380
C380
C380
C380
C380
C380
C380
DFE0
FFE0
0380
0380
0380
0380
ENDCHAR
STARTCHAR five
ENCODING 53
SWIDTH 375 0
DWIDTH 13 0
BBX 11 15 0 0
BITMAP
FEE0
FFE0
C0E0
C0E0
C000
C000
FFE0
FFE0
FFE0
00E0
00E0
C0E0
C0E0
DFC0
CF80
ENDCHAR
STARTCHAR six
ENCODING 54
SWIDTH 375 0
DWIDTH 13 0
BBX 11 15 0 0
BITMAP
FEE0
FFE0
C0E0
C0E0
C000
C000
CFE0
DFE0
FFE0
C0E0
C0E0
C0E0
C0E0
FFE0
FFE0
ENDCHAR
STARTCHAR seven
ENCODING 55
SWIDTH 375 0
DWIDTH 13 0
BBX 11 15 0 0
BITMAP
CFE0
DFE0
C0E0
C0E0
00E0
00E0
00E0
7FC0
FF80
C000
C000
C000
C000
C000
C000
ENDCHAR
STARTCHAR eight
ENCODING 56
SWIDTH 375 0
DWIDTH 13 0
BBX 11 15 0 0
BITMAP
FEE0
FFE0
C0E0
C0E0
C0E0
C0E0
C0E0
7FC0
FF80
C0E0
C0E0
C0E0
C0E0
FFE0
FFE0
ENDCHAR
STARTCHAR nine
ENCODING 57
SWIDTH 375 0
DWIDTH 13 0
BBX 11 15 0 0
BITMAP
FFE0
FFE0
C0E0
C0E0
C0E0
C0E0
FFE0
FFE0
FEE0
00E0
00E0
C0E0
C0E0
DFE0
CFE0
ENDCHAR
STARTCHAR colon
ENCODING 58
SWIDTH 125 0
DWIDTH 4 0
BBX 2 7 0 4
BITMAP
C0
C0
C0
00
00
C0
C0
ENDCHAR
STARTCHAR semicolon
ENCODING 59
SWIDTH 125 0
DWIDTH 4 0
BBX 2 8 0 3
BITMAP
C0
C0
C0
00
00
C0
C0
80
ENDCHAR
STARTCHAR less
ENCODING 60
SWIDTH 187 0
DWIDTH 6 0
BBX 4 15 0 0
BITMAP
F0
F0
C0
C0
C0
C0
C0
C0
C0
C0
C0
C0
C0
F0
F0
ENDCHAR
STARTCHAR equal
ENCODING 61
SWIDTH 250 0
DWIDTH 9 0
BBX 6 7 0 4
BITMAP
FC
FC
FC
00
00
FC
FC
ENDCHAR
STARTCHAR greater
ENCODING 62
SWIDTH 187 0
DWIDTH 6 0
BBX 4 15 0 0
BITMAP
F0
F0
30
30
30
30
30
30
30
30
30
30
30
F0
F0
ENDCHAR
STARTCHAR question
ENCODING 63
SWIDTH 375 0
DWIDTH 13 0
BBX 11 15 0 0
BITMAP
CF80
DFC0
C0E0
C0E0
00E0
00E0
00E0
3FE0
3FE0
3000
3000
0000
0000
3000
3000
ENDCHAR
STARTCHAR at
ENCODING 64
SWIDTH 375 0
DWIDTH 13 0
BBX 11 15 0 0
BITMAP
FFE0
FFE0
C0E0
C0E0
CCE0
CCE0
CCE0
CCE0
CCE0
CCE0
CDE0
4000
C000
FFE0
FFE0
ENDCHAR
STARTCHAR A
ENCODING 65
SWIDTH 375 0
DWIDTH 13 0
BBX 11 15 0 0
BITMAP
FFE0
FFE0
C0E0
C0E0
C0E0
C0E0
C0E0
DFE0
FFE0
C0E0
C0E0
C0E0
C0E0
C0E0
C0E0
ENDCHAR
STARTCHAR B
ENCODING 66
SWIDTH 375 0
DWIDTH 13 0
BBX 11 15 0 0
BITMAP
CFE0
DFE0
C0E0
C0E0
C0E0
C0E0
C0E0
DFC0
FF80
C0E0
C0E0
C0E0
C0E0
DFE0
CFE0
ENDCHAR
STARTCHAR C
ENCODING 67
SWIDTH 375 0
DWIDTH 13 0
BBX 11 15 0 0
BITMAP
FEE0
FFE0
C0E0
C0E0
C000
C000
C000
C000
C000
C000
C000
C0E0
C0E0
FFE0
FEE0
ENDCHAR
STARTCHAR D
ENCODING 68
SWIDTH 375 0
DWIDTH 13 0
BBX 11 15 0 0
BITMAP
CFE0
DFE0
C0E0
C0E0
C0E0
C0E0
C0E0
C0E0
C0E0
C0E0
C0E0
C0E0
C0E0
DFE0
CFE0
ENDCHAR
STARTCHAR E
ENCODING 69
SWIDTH 375 0
DWIDTH 13 0
BBX 11 15 0 0
BITMAP
CFE0
DFE0
C0E0
C0E0
C000
C000
CF80
DF80
FF80
C000
C000
C0E0
C0E0
FFE0
FFE0
ENDCHAR
STARTCHAR F
ENCODING 70
SWIDTH 375 0
DWIDTH 13 0
BBX 11 15 0 0
BITMAP
CFE0
DFE0
C0E0
C0E0
C000
C000
CF80
DF80
FF80
C000
C000
C000
C000
C000
C000
ENDCHAR
STARTCHAR G
ENCODING 71
SWIDTH 375 0
DWIDTH 13 0
BBX 11 15 0 0
BITMAP
FEE0
FFE0
C0E0
C0E0
C000
C000
CFE0
CFE0
CFE0
C0E0
C0E0
C0E0
C0E0
FFE0
FEE0
ENDCHAR
STARTCHAR H
ENCODING 72
SWIDTH 375 0
DWIDTH 13 0
BBX 11 15 0 0
BITMAP
C0E0
C0E0
C0E0
C0E0
C0E0
C0E0
C0E0
DFE0
FFE0
C0E0
C0E0
C0E0
C0E0
C0E0
C0E0
ENDCHAR
STARTCHAR I
ENCODING 73
SWIDTH 125 0
DWIDTH 4 0
BBX 2 15 0 0
BITMAP
C0
C0
C0
C0
C0
C0
C0
C0
C0
C0
C0
C0
C0
C0
C0
ENDCHAR
STARTCHAR J
ENCODING 74
SWIDTH 375 0
DWIDTH 13 0
BBX 11 15 0 0
BITMAP
03E0
03E0
00E0
00E0
00E0
00E0
00E0
00E0
00E0
00E0
00E0
C0E0
C0E0
DFE0
CFE0
ENDCHAR
STARTCHAR K
ENCODING 75
SWIDTH 375 0
DWIDTH 13 0
BBX 11 15 0 0
BITMAP
C0E0
C0E0
C0E0
C0E0
C0E0
C0E0
C0E0
DFC0
FF80
C0E0
C0E0
C0E0
C0E0
C0E0
C0E0
ENDCHAR
STARTCHAR L
ENCODING 76
SWIDTH 375 0
DWIDTH 13 0
BBX 11 15 0 0
BITMAP
F000
F000
C000
C000
C000
C000
C000
C000
C000
C000
C000
C0E0
C0E0
CFE0
DFE0
ENDCHAR
STARTCHAR M
ENCODING 77
SWIDTH 500 0
DWIDTH 17 0
BBX 15 15 0 0
BITMAP
CFBE
DFFE
C386
C386
C386
C386
C386
C386
C386
C386
C386
C386
C386
C386
C386
ENDCHAR
STARTCHAR N
ENCODING 78
SWIDTH 375 0
DWIDTH 13 0
BBX 11 15 0 0
BITMAP
CFE0
DFE0
C0E0
C0E0
C0E0
C0E0
C0E0
C0E0
C0E0
C0E0
C0E0
C0E0
C0E0
C0E0
C0E0
ENDCHAR
STARTCHAR O
ENCODING 79
SWIDTH 375 0
DWIDTH 13 0
BBX 11 15 0 0
BITMAP
FFE0
FFE0
C0E0
C0E0
C0E0
C0E0
C0E0
C0E0
C0E0
C0E0
C0E0
C0E0
C0E0
FFE0
FFE0
ENDCHAR
STARTCHAR P
ENCODING 80
SWIDTH 375 0
DWIDTH 13 0
BBX 11 15 0 0
BITMAP
CFE0
DFE0
C0E0
C0E0
C0E0
C0E0
C0E0
DFE0
CFE0
C000
C000
C000
C000
C000
C000
ENDCHAR
STARTCHAR Q
ENCODING 81
SWIDTH 375 0
DWIDTH 13 0
BBX 11 17 0 -2
BITMAP
FFE0
FFE0
C0E0
C0E0
C0E0
C0E0
C0E0
C0E0
C0E0
CCE0
CCE0
CCE0
CCE0
FDE0
FCE0
0C00
0C00
ENDCHAR
STARTCHAR R
ENCODING 82
SWIDTH 375 0
DWIDTH 13 0
BBX 11 15 0 0
BITMAP
CFE0
DFE0
C0E0
C0E0
C0E0
C0E0
FFE0
DFC0
CFE0
C0E0
C0E0
C0E0
C0E0
C0E0
C0E0
ENDCHAR
STARTCHAR S
ENCODING 83
SWIDTH 375 0
DWIDTH 13 0
BBX 11 15 0 0
BITMAP
FEE0
FFE0
C0E0
C0E0
C000
C000
FFE0
FFE0
FFE0
00E0
00E0
C0E0
C0E0
DFE0
CFE0
ENDCHAR
STARTCHAR T
ENCODING 84
SWIDTH 375 0
DWIDTH 13 0
BBX 11 15 0 0
BITMAP
FFE0
EFE0
CCE0
CCE0
0C00
0C00
0C00
0C00
0C00
0C00
0C00
0C00
0C00
0C00
0C00
ENDCHAR
STARTCHAR U
ENCODING 85
SWIDTH 375 0
DWIDTH 13 0
BBX 11 15 0 0
BITMAP
C0E0
C0E0
C0E0
C0E0
C0E0
C0E0
C0E0
C0E0
C0E0
C0E0
C0E0
C0E0
C0E0
FFE0
FEE0
ENDCHAR
STARTCHAR V
ENCODING 86
SWIDTH 375 0
DWIDTH 13 0
BBX 11 15 0 0
BITMAP
C0E0
C0E0
C0E0
C0E0
C0E0
C0E0
C0E0
C0E0
C0E0
C0E0
C0E0
C0E0
C0E0
7FC0
3F80
ENDCHAR
STARTCHAR W
ENCODING 87
SWIDTH 500 0
DWIDTH 17 0
BBX 15 15 0 0
BITMAP
C386
C386
C386
C386
C386
C386
C386
C386
C386
C386
C386
C386
C386
FFF6
FBE6
ENDCHAR
STARTCHAR X
ENCODING 88
SWIDTH 375 0
DWIDTH 13 0
BBX 11 15 0 0
BITMAP
C0E0
C0E0
C0E0
C0E0
C0E0
40E0
00E0
FFE0
FFE0
C080
C0C0
C0E0
C0E0
C0E0
C0E0
ENDCHAR
STARTCHAR Y
ENCODING 89
SWIDTH 375 0
DWIDTH 13 0
BBX 11 15 0 0
BITMAP
C0E0
C0E0
C0E0
C0E0
C0E0
40E0
00E0
FFE0
FFE0
0800
0C00
0C00
0C00
0C00
0C00
ENDCHAR
STARTCHAR Z
ENCODING 90
SWIDTH 375 0
DWIDTH 13 0
BBX 11 15 0 0
BITMAP
CFE0
DFE0
C0E0
C0E0
00E0
00E0
00E0
7FC0
FF80
C000
C000
C0E0
C0E0
FFE0
FEE0
ENDCHAR
STARTCHAR bracketleft
ENCODING 91
SWIDTH 187 0
DWIDTH 6 0
BBX 4 15 0 0
BITMAP
F0
F0
C0
C0
C0
C0
C0
C0
C0
C0
C0
C0
C0
F0
F0
ENDCHAR
STARTCHAR backslash
ENCODING 92
SWIDTH 375 0
DWIDTH 13 0
BBX 11 15 0 0
BITMAP
C000
C000
C000
C000
C000
C000
FF80
7FC0
3FE0
00E0
00E0
00E0
00E0
00E0
00E0
ENDCHAR
STARTCHAR bracketright
ENCODING 93
SWIDTH 187 0
DWIDTH 6 0
BBX 4 15 0 0
BITMAP
F0
F0
30
30
30
30
30
30
30
30
30
30
30
F0
F0
ENDCHAR
STARTCHAR asciicircum
ENCODING 94
SWIDTH 125 0
DWIDTH 4 0
BBX 2 4 0 11
BITMAP
C0
C0
C0
80
ENDCHAR
STARTCHAR underscore
ENCODING 95
SWIDTH 375 0
DWIDTH 13 0
BBX 11 2 0 0
BITMAP
FFE0
FFE0
ENDCHAR
STARTCHAR grave
ENCODING 96
SWIDTH 125 0
DWIDTH 4 0
BBX 2 4 0 11
BITMAP
C0
C0
C0
80
ENDCHAR
STARTCHAR a
ENCODING 97
SWIDTH 312 0
DWIDTH 11 0
BBX 9 11 0 0
BITMAP
F380
FB80
C380
C380
C380
C380
C380
C380
C380
FF80
FB80
ENDCHAR
STARTCHAR b
ENCODING 98
SWIDTH 312 0
DWIDTH 11 0
BBX 9 15 0 0
BITMAP
C000
C000
C000
C000
CF80
DF80
FF80
C380
C380
C380
C380
C380
C380
DF80
CF80
ENDCHAR
STARTCHAR c
ENCODING 99
SWIDTH 312 0
DWIDTH 11 0
BBX 9 11 0 0
BITMAP
FF80
FF80
FF80
4380
C380
C000
C000
C380
C380
FF80
FF80
ENDCHAR
STARTCHAR d
ENCODING 100
SWIDTH 312 0
DWIDTH 11 0
BBX 9 15 0 0
BITMAP
0380
0380
0380
0380
F380
FB80
C380
C380
C380
C380
C380
C380
C380
FF80
FB80
ENDCHAR
STARTCHAR e
ENCODING 101
SWIDTH 312 0
DWIDTH 11 0
BBX 9 11 0 0
BITMAP
FF80
FF80
FF80
4380
C380
DF80
CF80
C000
C000
FF80
FF80
ENDCHAR
STARTCHAR f
ENCODING 102
SWIDTH 250 0
DWIDTH 9 0
BBX 6 15 0 0
BITMAP
FC
FC
C0
40
FC
FC
C0
C0
C0
C0
C0
C0
C0
C0
C0
ENDCHAR
STARTCHAR g
ENCODING 103
SWIDTH 312 0
DWIDTH 11 0
BBX 9 15 0 -4
BITMAP
F380
FB80
C380
C380
C380
C380
C380
C380
C380
FF80
FB80
0380
0380
3F80
3F80
ENDCHAR
STARTCHAR h
ENCODING 104
SWIDTH 312 0
DWIDTH 11 0
BBX 9 15 0 0
BITMAP
C000
C000
C000
C000
CF80
DF80
FF80
C380
C380
C380
C380
C380
C380
C380
C380
ENDCHAR
STARTCHAR i
ENCODING 105
SWIDTH 125 0
DWIDTH 4 0
BBX 2 15 0 0
BITMAP
C0
C0
00
00
C0
C0
C0
C0
C0
C0
C0
C0
C0
C0
C0
ENDCHAR
STARTCHAR j
ENCODING 106
SWIDTH 125 0
DWIDTH 4 0
BBX 6 19 -4 -4
BITMAP
0C
0C
00
00
0C
0C
0C
0C
0C
0C
0C
0C
0C
0C
0C
0C
0C
FC
FC
ENDCHAR
STARTCHAR k
ENCODING 107
SWIDTH 312 0
DWIDTH 11 0
BBX 9 15 0 0
BITMAP
C000
C000
C000
C000
C380
C380
C380
4380
0380
FF80
FF80
C200
C300
C380
C380
ENDCHAR
STARTCHAR l
ENCODING 108
SWIDTH 125 0
DWIDTH 4 0
BBX 2 15 0 0
BITMAP
C0
C0
C0
C0
C0
C0
C0
C0
C0
C0
C0
C0
C0
C0
C0
ENDCHAR
STARTCHAR m
ENCODING 109
SWIDTH 500 0
DWIDTH 17 0
BBX 15 11 0 0
BITMAP
CFBE
DFFE
FFFE
C386
C386
C386
C386
C386
C386
C386
C386
ENDCHAR
STARTCHAR n
ENCODING 110
SWIDTH 312 0
DWIDTH 11 0
BBX 9 11 0 0
BITMAP
CF80
DF80
FF80
C380
C380
C380
C380
C380
C380
C380
C380
ENDCHAR
STARTCHAR o
ENCODING 111
SWIDTH 312 0
DWIDTH 11 0
BBX 9 11 0 0
BITMAP
FF80
FF80
C380
C380
C380
C380
C380
C380
C380
FF80
FF80
ENDCHAR
STARTCHAR p
ENCODING 112
SWIDTH 312 0
DWIDTH 11 0
BBX 9 15 0 -4
BITMAP
CF80
DF80
FF80
C380
C380
C380
C380
C380
C380
DF80
CF80
C000
C000
C000
C000
ENDCHAR
STARTCHAR q
ENCODING 113
SWIDTH 312 0
DWIDTH 11 0
BBX 9 15 0 -4
BITMAP
F380
FB80
C380
C380
C380
C380
C380
C380
C380
FF80
FB80
0380
0380
0380
0380
ENDCHAR
STARTCHAR r
ENCODING 114
SWIDTH 250 0
DWIDTH 9 0
BBX 6 11 0 0
BITMAP
CC
DC
FC
C0
C0
C0
C0
C0
C0
C0
C0
ENDCHAR
STARTCHAR s
ENCODING 115
SWIDTH 312 0
DWIDTH 11 0
BBX 9 11 0 0
BITMAP
FF80
FF80
C000
4000
0000
FF80
FF80
0380
0380
FF80
FF80
ENDCHAR
STARTCHAR t
ENCODING 116
SWIDTH 250 0
DWIDTH 9 0
BBX 6 15 0 0
BITMAP
C0
C0
C0
C0
FC
FC
FC
40
C0
C0
C0
C0
C0
FC
FC
ENDCHAR
STARTCHAR u
ENCODING 117
SWIDTH 312 0
DWIDTH 11 0
BBX 9 11 0 0
BITMAP
C380
C380
C380
C380
C380
C380
C380
C380
C380
FF80
FB80
ENDCHAR
STARTCHAR v
ENCODING 118
SWIDTH 312 0
DWIDTH 11 0
BBX 9 11 0 0
BITMAP
C380
C380
C380
C380
C380
C380
C380
C380
C380
7F00
3E00
ENDCHAR
STARTCHAR w
ENCODING 119
SWIDTH 500 0
DWIDTH 17 0
BBX 15 11 0 0
BITMAP
C386
C386
C386
C386
C386
C386
C386
C386
C386
FFF6
FBE6
ENDCHAR
STARTCHAR x
ENCODING 120
SWIDTH 312 0
DWIDTH 11 0
BBX 9 11 0 0
BITMAP
C380
C380
C380
4380
0380
FF80
FF80
C200
C300
C380
C380
ENDCHAR
STARTCHAR y
ENCODING 121
SWIDTH 312 0
DWIDTH 11 0
BBX 9 15 0 -4
BITMAP
C380
C380
C380
C380
C380
C380
C380
C380
C380
FF80
FB80
0380
0380
3F80
3F80
ENDCHAR
STARTCHAR z
ENCODING 122
SWIDTH 312 0
DWIDTH 11 0
BBX 9 11 0 0
BITMAP
FF80
FF80
FF80
0380
0380
FF80
FF80
4000
0000
FF80
FF80
ENDCHAR
STARTCHAR braceleft
ENCODING 123
SWIDTH 250 0
DWIDTH 9 0
BBX 6 15 0 0
BITMAP
3C
3C
30
30
30
30
30
F0
F0
30
30
30
30
3C
3C
ENDCHAR
STARTCHAR bar
ENCODING 124
SWIDTH 125 0
DWIDTH 4 0
BBX 2 15 0 0
BITMAP
C0
C0
C0
C0
C0
C0
C0
C0
C0
C0
C0
C0
C0
C0
C0
ENDCHAR
STARTCHAR braceright
ENCODING 125
SWIDTH 250 0
DWIDTH 9 0
BBX 6 15 0 0
BITMAP
F0
F0
30
30
30
30
3C
3C
3C
30
30
30
30
F0
F0
ENDCHAR
STARTCHAR asciitilde
ENCODING 126
SWIDTH 250 0
DWIDTH 9 0
BBX 6 3 0 6
BITMAP
FC
FC
FC
ENDCHAR
STARTCHAR quoteleft
ENCODING 8216
SWIDTH 125 0
DWIDTH 4 0
BBX 2 3 0 11
BITMAP
40
C0
C0
ENDCHAR
STARTCHAR quoteright
ENCODING 8217
SWIDTH 125 0
DWIDTH 4 0
BBX 2 4 0 11
BITMAP
C0
C0
C0
80
ENDCHAR
STARTCHAR quotedblleft
ENCODING 8220
SWIDTH 187 0
DWIDTH 6 0
BBX 4 3 0 11
BITMAP
50
F0
F0
ENDCHAR
STARTCHAR quotedblright
ENCODING 8221
SWIDTH 187 0
DWIDTH 6 0
BBX 4 4 0 11
BITMAP
F0
F0
F0
A0
ENDCHAR
STARTCHAR .notdef
ENCODING -1
SWIDTH 125 0
DWIDTH 4 0
BBX 15 15 0 0
BITMAP
FFFE
FFFE
FC3E
F83E
F83E
F9FE
F9FE
FFFE
F83E
F83E
FFFE
F9FE
F9FE
FFFE
FFFE
ENDCHAR
STARTCHAR glyph1
ENCODING -1
SWIDTH 0 0
DWIDTH 0 0
BBX 1 1 0 0
BITMAP
00
ENDCHAR
STARTCHAR glyph2
ENCODING -1
SWIDTH 125 0
DWIDTH 4 0
BBX 1 1 0 0
BITMAP
00
ENDCHAR
ENDFONT
